<svg width="35" height="35" viewBox="0 0 35 35" fill="none" xmlns="http://www.w3.org/2000/svg">
<g id="cart">
<path id="Rectangle 2" fill-rule="evenodd" clip-rule="evenodd" d="M8.3277 8.75H31.0511L28.887 21.875H10.4918L8.3277 8.75Z" stroke="#1E1E1E" stroke-width="2" stroke-linecap="round" stroke-linejoin="round"/>
<path id="Oval 8" fill-rule="evenodd" clip-rule="evenodd" d="M13.125 29.1667C13.9304 29.1667 14.5834 28.5137 14.5834 27.7083C14.5834 26.9029 13.9304 26.25 13.125 26.25C12.3196 26.25 11.6667 26.9029 11.6667 27.7083C11.6667 28.5137 12.3196 29.1667 13.125 29.1667Z" stroke="#1E1E1E" stroke-width="2"/>
<path id="Oval 8_2" fill-rule="evenodd" clip-rule="evenodd" d="M26.25 29.1667C27.0554 29.1667 27.7084 28.5137 27.7084 27.7083C27.7084 26.9029 27.0554 26.25 26.25 26.25C25.4446 26.25 24.7917 26.9029 24.7917 27.7083C24.7917 28.5137 25.4446 29.1667 26.25 29.1667Z" stroke="#1E1E1E" stroke-width="2"/>
<path id="Path 2" d="M10.2083 8.74999H4.375" stroke="#1E1E1E" stroke-width="2" stroke-linecap="round"/>
</g>
</svg>
